{
  "accessors": [
    {
      "bufferView": 2,
      "componentType": 5126,
      "count": 416,
      "max": [
        17.978126525878906,
        90.84013366699219,
        3.812002658843994
      ],
      "min": [
        -21.74911880493164,
        -20.074270248413086,
        -3.8120198249816895
      ],
      "type": "VEC3"
    },
    {
      "bufferView": 2,
      "byteOffset": 4992,
      "componentType": 5126,
      "count": 416,
      "max": [
        1.0,
        1.0,
        1.0
      ],
      "min": [
        -1.0,
        -1.0,
        -1.0
      ],
      "type": "VEC3"
    },
    {
      "bufferView": 3,
      "componentType": 5126,
      "count": 416,
      "max": [
        1.0,
        0.9999969005584717,
        1.0,
        1.0
      ],
      "min": [
        -1.0,
        -1.0,
        -1.0,
        1.0
      ],
      "type": "VEC4"
    },
    {
      "bufferView": 1,
      "componentType": 5126,
      "count": 416,
      "max": [
        0.993205726146698,
        0.9786592721939087
      ],
      "min": [
        0.018392041325569153,
        0.016510631889104843
      ],
      "type": "VEC2"
    },
    {
      "bufferView": 1,
      "byteOffset": 3328,
      "componentType": 5126,
      "count": 416,
      "max": [
        0.993205726146698,
        0.9786592721939087
      ],
      "min": [
        0.018392041325569153,
        0.016510631889104843
      ],
      "type": "VEC2"
    },
    {
      "bufferView": 1,
      "byteOffset": 6656,
      "componentType": 5126,
      "count": 416,
      "max": [
        0.993205726146698,
        0.9786592721939087
      ],
      "min": [
        0.018392041325569153,
        0.016510631889104843
      ],
      "type": "VEC2"
    },
    {
      "bufferView": 1,
      "byteOffset": 9984,
      "componentType": 5126,
      "count": 416,
      "max": [
        0.993205726146698,
        0.9786592721939087
      ],
      "min": [
        0.018392041325569153,
        0.016510631889104843
      ],
      "type": "VEC2"
    },
    {
      "bufferView": 1,
      "byteOffset": 13312,
      "componentType": 5126,
      "count": 416,
      "max": [
        0.993205726146698,
        0.9786592721939087
      ],
      "min": [
        0.018392041325569153,
        0.016510631889104843
      ],
      "type": "VEC2"
    },
    {
      "bufferView": 1,
      "byteOffset": 16640,
      "componentType": 5126,
      "count": 416,
      "max": [
        0.993205726146698,
        0.9786592721939087
      ],
      "min": [
        0.018392041325569153,
        0.016510631889104843
      ],
      "type": "VEC2"
    },
    {
      "bufferView": 1,
      "byteOffset": 19968,
      "componentType": 5126,
      "count": 416,
      "max": [
        0.993205726146698,
        0.9786592721939087
      ],
      "min": [
        0.018392041325569153,
        0.016510631889104843
      ],
      "type": "VEC2"
    },
    {
      "bufferView": 1,
      "byteOffset": 23296,
      "componentType": 5126,
      "count": 416,
      "max": [
        0.993205726146698,
        0.9786592721939087
      ],
      "min": [
        0.018392041325569153,
        0.016510631889104843
      ],
      "type": "VEC2"
    },
    {
      "bufferView": 1,
      "byteOffset": 26624,
      "componentType": 5126,
      "count": 416,
      "max": [
        0.993205726146698,
        0.9786592721939087
      ],
      "min": [
        0.018392041325569153,
        0.016510631889104843
      ],
      "type": "VEC2"
    },
    {
      "bufferView": 1,
      "byteOffset": 29952,
      "componentType": 5126,
      "count": 416,
      "max": [
        0.993205726146698,
        0.9786592721939087
      ],
      "min": [
        0.018392041325569153,
        0.016510631889104843
      ],
      "type": "VEC2"
    },
    {
      "bufferView": 0,
      "componentType": 5125,
      "count": 1386,
      "type": "SCALAR"
    }
  ],
  "asset": {
    "extras": {
      "author": "bariacg (https://sketchfab.com/bariacg)",
      "license": "SKETCHFAB Standard (https://sketchfab.com/licenses)",
      "source": "https://sketchfab.com/3d-models/key-bc9a9416d5df42b5a7a3c4ef3c74f573",
      "title": "Key"
    },
    "generator": "Sketchfab-12.63.0",
    "version": "2.0"
  },
  "bufferViews": [
    {
      "buffer": 0,
      "byteLength": 5544,
      "name": "floatBufferViews",
      "target": 34963
    },
    {
      "buffer": 0,
      "byteLength": 33280,
      "byteOffset": 5544,
      "byteStride": 8,
      "name": "floatBufferViews",
      "target": 34962
    },
    {
      "buffer": 0,
      "byteLength": 9984,
      "byteOffset": 38824,
      "byteStride": 12,
      "name": "floatBufferViews",
      "target": 34962
    },
    {
      "buffer": 0,
      "byteLength": 6656,
      "byteOffset": 48808,
      "byteStride": 16,
      "name": "floatBufferViews",
      "target": 34962
    }
  ],
  "buffers": [
    {
      "byteLength": 55464,
      "uri": "scene.bin"
    }
  ],
  "images": [
    {
      "uri": "textures/material_baseColor.png"
    },
    {
      "uri": "textures/material_metallicRoughness.png"
    },
    {
      "uri": "textures/material_normal.png"
    }
  ],
  "materials": [
    {
      "doubleSided": true,
      "name": "material",
      "normalTexture": {
        "index": 2
      },
      "pbrMetallicRoughness": {
        "baseColorTexture": {
          "index": 0
        },
        "metallicRoughnessTexture": {
          "index": 1
        },
        "roughnessFactor": 0.444994193434629
      }
    }
  ],
  "meshes": [
    {
      "name": "Key_Key_0",
      "primitives": [
        {
          "attributes": {
            "NORMAL": 1,
            "POSITION": 0,
            "TANGENT": 2,
            "TEXCOORD_0": 3,
            "TEXCOORD_1": 4,
            "TEXCOORD_2": 5,
            "TEXCOORD_3": 6,
            "TEXCOORD_4": 7,
            "TEXCOORD_5": 8,
            "TEXCOORD_6": 9,
            "TEXCOORD_7": 10,
            "TEXCOORD_8": 11,
            "TEXCOORD_9": 12
          },
          "indices": 13,
          "material": 0,
          "mode": 4
        }
      ]
    }
  ],
  "nodes": [
    {
      "children": [
        1
      ],
      "matrix": [
        1.0,
        0.0,
        0.0,
        0.0,
        0.0,
        2.220446049250313e-16,
        -1.0,
        0.0,
        0.0,
        1.0,
        2.220446049250313e-16,
        0.0,
        0.0,
        0.0,
        0.0,
        1.0
      ],
      "name": "Sketchfab_model"
    },
    {
      "children": [
        2
      ],
      "matrix": [
        1.0,
        0.0,
        0.0,
        0.0,
        0.0,
        0.0,
        1.0,
        0.0,
        0.0,
        -1.0,
        0.0,
        0.0,
        0.0,
        0.0,
        0.0,
        1.0
      ],
      "name": "74bf200d1b8d4fa6abedd83cb475d295.fbx"
    },
    {
      "children": [
        3
      ],
      "name": "RootNode"
    },
    {
      "children": [
        4
      ],
      "matrix": [
        1.0,
        0.0,
        0.0,
        0.0,
        0.0,
        0.9999999999999867,
        1.6292068494294582e-07,
        0.0,
        0.0,
        -1.6292068494294582e-07,
        0.9999999999999867,
        0.0,
        0.0,
        0.0,
        0.0,
        1.0
      ],
      "name": "Key"
    },
    {
      "mesh": 0,
      "name": "Key_Key_0"
    }
  ],
  "samplers": [
    {
      "magFilter": 9729,
      "minFilter": 9987,
      "wrapS": 10497,
      "wrapT": 10497
    }
  ],
  "scene": 0,
  "scenes": [
    {
      "name": "Sketchfab_Scene",
      "nodes": [
        0
      ]
    }
  ],
  "textures": [
    {
      "sampler": 0,
      "source": 0
    },
    {
      "sampler": 0,
      "source": 1
    },
    {
      "sampler": 0,
      "source": 2
    }
  ]
}
